<svg width="18" height="18" viewBox="0 0 18 18" fill="none" xmlns="http://www.w3.org/2000/svg">
    <g clip-path="url(#clip0_3625_12292)">
        <path d="M6.18789 16.9594V13.0781L3.29102 15.2156C4.10664 15.975 5.09102 16.5656 6.18789 16.9594ZM11.8129 16.9594C12.9098 16.5656 13.8941 15.975 14.7098 15.2156L11.8129 13.05V16.9594ZM1.04102 11.8125C1.12539 12.0938 1.23789 12.3469 1.37852 12.6281L2.47539 11.8125H1.04102ZM15.5254 11.8125L16.6223 12.6281C16.7348 12.375 16.8473 12.0938 16.9598 11.8125H15.5254Z" fill="#2A5F9E" />
        <path d="M6.60957 10.6875H0.731445C0.81582 11.0813 0.92832 11.4469 1.04082 11.8125H2.4752L1.37832 12.6281C1.60332 13.1063 1.85645 13.5281 2.16582 13.95L5.0627 11.8125H6.1877V12.375L2.89707 14.7937L3.29082 15.1875L6.1877 13.0781V16.9594C6.55332 17.1 6.91895 17.1844 7.3127 17.2688V10.6875H6.60957ZM17.2689 10.6875H10.6877V17.2688C11.0814 17.1844 11.4471 17.0719 11.8127 16.9594V13.0781L14.7096 15.1875C15.1033 14.8219 15.4408 14.4281 15.7783 14.0063L12.7689 11.8125H14.6814L16.3971 13.0781C16.4814 12.9375 16.5658 12.7688 16.6221 12.6281L15.5252 11.8125H16.9596C17.0721 11.4469 17.1846 11.0813 17.2689 10.6875Z" fill="white" />
        <path d="M2.16602 13.95C2.39102 14.2594 2.61602 14.5406 2.86914 14.8219L6.18789 12.4031V11.8406H5.06289L2.16602 13.95ZM12.7973 11.8125L15.8066 14.0062C15.9191 13.8656 16.0035 13.725 16.116 13.5844C16.1441 13.5562 16.1441 13.5281 16.1723 13.5281C16.2566 13.3875 16.3691 13.2188 16.4535 13.0781L14.6816 11.8125H12.7973Z" fill="#ED4C5C" />
        <path d="M11.8129 1.04102V4.92227L14.7098 2.78477C13.8941 2.02539 12.9098 1.43477 11.8129 1.04102ZM6.18789 1.04102C5.09102 1.43477 4.10664 2.02539 3.29102 2.78477L6.18789 4.95039V1.04102ZM16.9598 6.18789C16.8754 5.90664 16.7629 5.65352 16.6223 5.37227L15.5254 6.18789H16.9598ZM2.47539 6.18789L1.37852 5.37227C1.26602 5.65352 1.15352 5.90664 1.04102 6.18789H2.47539Z" fill="#2A5F9E" />
        <path d="M11.3908 7.3127H17.2408C17.1564 6.91895 17.0439 6.55332 16.9314 6.1877H15.4971L16.5939 5.37207C16.3689 4.89395 16.1158 4.47207 15.8064 4.0502L12.9377 6.1877H11.8127V5.6252L15.1033 3.20645L14.7096 2.8127L11.8127 4.92207V1.04082C11.4471 0.900195 11.0814 0.81582 10.6877 0.731445V7.3127H11.3908ZM0.731445 7.3127H7.3127V0.731445C6.91895 0.81582 6.55332 0.92832 6.1877 1.04082V4.92207L3.29082 2.8127C2.89707 3.17832 2.55957 3.57207 2.22207 3.99395L5.23145 6.1877H3.31895L1.60332 4.92207C1.51895 5.0627 1.43457 5.23145 1.37832 5.37207L2.4752 6.1877H1.04082C0.92832 6.55332 0.81582 6.91895 0.731445 7.3127Z" fill="white" />
        <path d="M15.8346 4.04961C15.6096 3.74023 15.3846 3.45898 15.1314 3.17773L11.8127 5.59648V6.15898H12.9377L15.8346 4.04961ZM5.20332 6.18711L2.22207 3.99336C2.10957 4.13398 2.0252 4.27461 1.9127 4.41523C1.88457 4.44336 1.88457 4.47148 1.85645 4.47148C1.77207 4.61211 1.65957 4.78086 1.5752 4.92148L3.29082 6.18711H5.20332Z" fill="#ED4C5C" />
        <path d="M17.2688 7.3125H10.6875V0.73125C10.1531 0.61875 9.59062 0.5625 9 0.5625C8.40938 0.5625 7.84688 0.61875 7.3125 0.73125V7.3125H0.73125C0.61875 7.84688 0.5625 8.40938 0.5625 9C0.5625 9.59062 0.61875 10.1531 0.73125 10.6875H7.3125V17.2688C7.84688 17.3813 8.40938 17.4375 9 17.4375C9.59062 17.4375 10.1531 17.3813 10.6875 17.2688V10.6875H17.2688C17.3813 10.1531 17.4375 9.59062 17.4375 9C17.4375 8.40938 17.3813 7.84688 17.2688 7.3125Z" fill="#ED4C5C" />
    </g>
    <defs>
        <clipPath id="clip0_3625_12292">
            <rect width="18" height="18" fill="white" />
        </clipPath>
    </defs>
</svg>
    