<svg xmlns="http://www.w3.org/2000/svg" viewBox="0 0 475.83 254.33"><defs><style>.cls-1{fill:#1988c1;}</style></defs><g id="Layer_2" data-name="Layer 2"><g id="Layer_1-2" data-name="Layer 1"><polyline class="cls-1" points="440.93 78.13 471.68 101.82 475 19.53 475.83 0 452.56 6.65 439.68 10.39 377.34 28.67 407.26 51.95 388.98 75.64 304.2 183.69 273.86 145.45 272.62 143.79 226.07 143.79 154.59 143.79 141.29 160.83 121.34 186.18 141.29 186.18 226.07 186.18 252.25 186.18 272.2 211.53 285.08 228.15 303.78 252.67"/><polygon points="306.28 118.02 344.51 75.64 222 75.64 210.78 75.64 208.2 75.64 174.96 118.02 306.28 118.02"/><polygon points="101.4 211.94 68.15 254.33 261.39 254.33 228.15 211.94 101.4 211.94"/><polygon class="cls-1" points="74.73 227.27 86.71 211.87 96.41 199.89 136.91 148.55 160.87 117.74 170.57 105.19 193.95 75.53 139.76 75.53 135.77 80.66 135.2 81.23 106.67 117.74 103.25 122.31 85 146.27 42.78 199.89 33.08 211.87 0 254.08 53.62 254.08 69.02 234.12 74.73 227.27"/></g></g></svg>