<svg xmlns="http://www.w3.org/2000/svg" viewBox="0 0 192 192"><defs><style>.cls-1{fill:#fff;}.cls-2{fill:#1988c1;}</style></defs><g id="Layer_2" data-name="Layer 2"><g id="Layer_1-2" data-name="Layer 1"><rect class="cls-1" width="192" height="192" rx="25.36"/><polyline class="cls-2" points="169.87 68 181.06 76.61 182.27 46.67 182.57 39.57 174.1 41.98 169.42 43.34 146.73 50 157.62 58.47 150.97 67.09 120.12 106.41 109.08 92.49 108.63 91.89 91.69 91.89 65.68 91.89 60.84 98.09 53.58 107.31 60.84 107.31 91.69 107.31 101.22 107.31 108.47 116.54 113.16 122.58 119.97 131.51"/><polygon points="120.88 82.51 134.79 67.09 90.21 67.09 86.13 67.09 85.19 67.09 73.09 82.51 120.88 82.51"/><polygon points="46.32 116.69 34.22 132.11 104.54 132.11 92.44 116.69 46.32 116.69"/><polygon class="cls-2" points="36.62 122.27 40.98 116.66 44.51 112.3 59.24 93.62 67.96 82.41 71.49 77.84 80 67.05 60.28 67.05 58.83 68.92 58.62 69.13 48.24 82.41 47 84.07 40.35 92.79 25 112.3 21.46 116.66 9.43 132.02 28.94 132.02 34.54 124.76 36.62 122.27"/></g></g></svg>