<svg xmlns="http://www.w3.org/2000/svg" viewBox="0 0 512 512"><defs><style>.cls-1{fill:#fff;}.cls-2{fill:#1988c1;}</style></defs><g id="Layer_2" data-name="Layer 2"><g id="Layer_1-2" data-name="Layer 1"><rect class="cls-1" width="512" height="512" rx="82.25"/><polyline class="cls-2" points="459.01 175.53 489.76 199.22 493.08 116.93 493.92 97.4 470.64 104.05 457.76 107.78 395.42 126.07 425.35 149.34 407.06 173.03 322.28 281.08 291.94 242.85 290.7 241.19 244.15 241.19 172.67 241.19 159.37 258.23 139.43 283.58 159.37 283.58 244.15 283.58 270.33 283.58 290.28 308.93 303.16 325.55 321.87 350.07"/><polygon points="324.36 215.42 362.59 173.03 240.08 173.03 228.87 173.03 226.28 173.03 193.04 215.42 324.36 215.42"/><polygon points="119.48 309.34 86.23 351.73 279.48 351.73 246.23 309.34 119.48 309.34"/><polygon class="cls-2" points="92.81 324.67 104.79 309.27 114.49 297.29 154.99 245.95 178.95 215.14 188.65 202.59 212.03 172.93 157.84 172.93 153.85 178.06 153.28 178.63 124.76 215.14 121.33 219.7 103.08 243.66 60.87 297.29 51.17 309.27 18.08 351.48 71.71 351.48 87.11 331.51 92.81 324.67"/></g></g></svg>