<svg xmlns="http://www.w3.org/2000/svg" viewBox="0 0 64 64">
    <defs>
        <style>.cls-1{fill:#fff;}.cls-2{fill:#1988c1;}</style>
    </defs>
    <g id="Layer_2" data-name="Layer 2">
        <g id="Layer_1-2" data-name="Layer 1">
            <rect class="cls-1" width="64" height="64" rx="8" />
            <polyline class="cls-2"
                points="50.98 24.03 53.85 26.24 54.17 18.55 54.24 16.72 52.07 17.34 50.86 17.7 45.03 19.41 47.83 21.58 46.12 23.8 38.2 33.9 35.36 30.32 35.24 30.17 30.89 30.17 24.21 30.17 22.97 31.76 21.1 34.13 22.97 34.13 30.89 34.13 33.34 34.13 35.2 36.5 36.41 38.05 38.16 40.35" />
            <polygon
                points="38.39 27.76 41.97 23.8 30.51 23.8 29.46 23.8 29.22 23.8 26.11 27.76 38.39 27.76" />
            <polygon points="19.24 36.54 16.13 40.5 34.2 40.5 31.09 36.54 19.24 36.54" />
            <polygon class="cls-2"
                points="16.74 37.97 17.86 36.53 18.77 35.41 22.56 30.61 24.8 27.73 25.7 26.56 27.89 23.79 22.82 23.79 22.45 24.27 22.4 24.32 19.73 27.73 19.41 28.16 17.7 30.4 13.76 35.41 12.85 36.53 9.76 40.48 14.77 40.48 16.21 38.61 16.74 37.97" />
        </g>
    </g>
</svg>